<?xml version="1.0" encoding="UTF-8" standalone="no"?>
<!DOCTYPE svg PUBLIC "-//W3C//DTD SVG 1.1//EN" "http://www.w3.org/Graphics/SVG/1.1/DTD/svg11.dtd">
<svg width="100%" height="100%" viewBox="0 0 953 398" version="1.1" xmlns="http://www.w3.org/2000/svg" xmlns:xlink="http://www.w3.org/1999/xlink" xml:space="preserve" xmlns:serif="http://www.serif.com/" style="fill-rule:evenodd;clip-rule:evenodd;stroke-linejoin:round;stroke-miterlimit:2;">
    <path d="M730.911,220.338L691.095,71.74C718.153,64.49 745.474,64.938 770.728,71.738C822.019,85.55 864.784,125.566 879.51,180.522L919.326,329.12C892.268,336.37 864.947,335.923 839.693,329.122C788.402,315.31 745.637,275.294 730.911,220.338Z" style="fill:white;"/>
    <path d="M570.934,217.415L531.117,68.817C558.175,61.567 585.496,62.014 610.75,68.814C662.041,82.626 704.807,122.643 719.532,177.598L759.349,326.196C732.29,333.446 704.969,332.999 679.716,326.199C628.425,312.387 585.659,272.37 570.934,217.415Z" style="fill:white;"/>
    <path d="M73.957,351.148C58.405,351.148 45.836,347.1 36.249,339.005C26.876,331.122 22.189,320.683 22.189,307.688C22.189,299.593 24.106,292.137 27.941,285.32C31.776,278.502 36.995,273.177 43.599,269.342C50.203,265.294 57.447,263.27 65.329,263.27C73.424,263.27 79.922,265.294 84.822,269.342C89.934,273.39 92.491,278.715 92.491,285.32C92.491,290.432 91.319,294.48 88.976,297.463C87.058,294.906 84.396,292.882 80.987,291.391C77.791,289.9 74.383,289.154 70.761,289.154C64.37,289.154 59.151,291.285 55.103,295.545C51.055,299.806 49.032,305.345 49.032,312.162C49.032,318.979 50.949,324.518 54.783,328.779C58.831,333.04 63.838,335.17 69.803,335.17C77.259,335.17 83.65,331.868 88.976,325.264C94.302,318.66 98.349,308.86 101.119,295.865L117.096,225.243L115.818,225.243C110.066,233.339 103.036,239.517 94.728,243.778C86.632,248.038 77.685,250.169 67.885,250.169C55.529,250.169 44.664,246.867 35.291,240.262C25.917,233.658 18.674,224.285 13.561,212.142C8.661,199.786 6.211,185.512 6.211,169.322C6.211,145.888 11.324,124.584 21.55,105.411C31.776,86.025 45.836,70.793 63.731,59.715C81.626,48.637 101.332,43.098 122.848,43.098C140.956,43.098 155.23,47.039 165.669,54.921C176.32,62.804 181.646,73.562 181.646,87.196C181.646,96.357 179.409,103.707 174.936,109.245C170.462,114.784 164.603,117.554 157.36,117.554C153.313,117.554 149.478,116.702 145.856,114.997C142.448,113.293 139.572,110.843 137.228,107.648C141.063,105.091 144.259,101.044 146.815,95.505C149.584,89.753 150.969,84.001 150.969,78.249C150.969,71.858 149.052,66.958 145.217,63.549C141.596,59.928 136.376,58.117 129.559,58.117C117.203,58.117 105.273,63.656 93.769,74.734C82.265,85.599 72.998,99.872 65.968,117.554C58.938,135.236 55.423,153.77 55.423,173.156C55.423,189.134 57.979,201.383 63.092,209.905C68.205,218.213 75.555,222.367 85.141,222.367C96.645,222.367 106.764,216.296 115.499,204.153C124.446,192.01 131.583,174.328 136.909,151.107L174.616,151.427L151.289,258.797C144.472,290.539 134.778,313.866 122.209,328.779C109.853,343.691 93.769,351.148 73.957,351.148ZM230.578,286.917C214.813,286.917 202.564,282.87 193.829,274.774C185.095,266.466 180.728,253.577 180.728,236.108C180.728,221.409 183.604,205.218 189.356,187.536C195.108,169.854 204.481,154.622 217.476,141.84C230.471,128.845 246.982,122.347 267.007,122.347C290.441,122.347 302.158,132.573 302.158,153.024C302.158,164.954 298.749,175.926 291.932,185.938C285.115,195.951 276.061,204.046 264.77,210.224C253.479,216.189 241.443,219.598 228.661,220.45C228.235,226.841 228.022,231.102 228.022,233.232C228.022,243.671 229.832,250.808 233.454,254.642C237.076,258.264 242.934,260.075 251.029,260.075C262.533,260.075 272.333,257.412 280.428,252.086C288.737,246.76 297.791,238.665 307.59,227.8L318.455,227.8C294.808,267.212 265.516,286.917 230.578,286.917ZM231.217,205.112C239.099,204.686 246.556,201.916 253.586,196.803C260.829,191.69 266.581,185.193 270.842,177.31C275.316,169.428 277.552,161.12 277.552,152.385C277.552,143.651 274.889,139.284 269.564,139.284C261.894,139.284 254.331,145.994 246.875,159.415C239.632,172.837 234.413,188.069 231.217,205.112ZM422.882,286.917C409.887,286.917 400.3,283.509 394.122,276.692C388.157,269.661 385.175,261.033 385.175,250.808C385.175,246.334 385.707,241.328 386.772,235.789C387.838,230.037 388.903,224.498 389.968,219.172C391.246,213.846 392.098,210.437 392.524,208.946C394.229,201.49 395.826,194.14 397.318,186.897C398.809,179.654 399.554,173.795 399.554,169.322C399.554,158.457 395.72,153.024 388.051,153.024C382.512,153.024 377.612,155.794 373.351,161.333C369.09,166.659 365.682,173.689 363.125,182.423L341.396,285L295.38,285L329.253,125.223L375.268,125.223L371.753,141.84C382.405,129.91 394.868,123.945 409.141,123.945C420.006,123.945 428.634,126.927 435.025,132.892C441.416,138.857 444.612,147.911 444.612,160.055C444.612,166.233 443.866,173.156 442.375,180.825C440.883,188.282 438.753,197.442 435.984,208.307C434.279,214.911 432.682,221.409 431.19,227.8C429.912,233.978 429.273,238.878 429.273,242.499C429.273,246.76 430.232,250.062 432.149,252.406C434.066,254.749 437.368,255.921 442.055,255.921C448.446,255.921 453.559,253.684 457.394,249.21C461.228,244.523 465.063,237.387 468.898,227.8L482.319,227.8C474.437,251.234 465.276,266.998 454.837,275.094C444.612,282.976 433.96,286.917 422.882,286.917Z" style="fill:white;fill-rule:nonzero;"/>
</svg>